<mxfile host="app.diagrams.net" agent="Mozilla/5.0 (Windows NT 10.0; Win64; x64) AppleWebKit/537.36 (KHTML, like Gecko) Chrome/139.0.0.0 Safari/537.36" version="28.1.2">
  <diagram name="Page-1" id="UulW7bn5gXuo3OyoAzEB">
    <mxGraphModel dx="1188" dy="576" grid="1" gridSize="10" guides="1" tooltips="1" connect="1" arrows="1" fold="1" page="1" pageScale="1" pageWidth="850" pageHeight="1100" math="0" shadow="0">
      <root>
        <mxCell id="0" />
        <mxCell id="1" parent="0" />
        <mxCell id="6X04bSD_6SKhwLYX3m_c-60" value="" style="rounded=0;whiteSpace=wrap;html=1;" vertex="1" parent="1">
          <mxGeometry x="40.33" y="160" width="799.67" height="410" as="geometry" />
        </mxCell>
        <mxCell id="6X04bSD_6SKhwLYX3m_c-39" value="" style="rounded=0;whiteSpace=wrap;html=1;dashed=1;movable=1;resizable=1;rotatable=1;deletable=1;editable=1;locked=0;connectable=1;" vertex="1" parent="1">
          <mxGeometry x="650" y="210" width="150" height="320" as="geometry" />
        </mxCell>
        <mxCell id="6X04bSD_6SKhwLYX3m_c-2" value="" style="rounded=0;whiteSpace=wrap;html=1;dashed=1;" vertex="1" parent="1">
          <mxGeometry x="80" y="210" width="150" height="320" as="geometry" />
        </mxCell>
        <mxCell id="6X04bSD_6SKhwLYX3m_c-4" value="" style="image;aspect=fixed;html=1;points=[];align=center;fontSize=12;image=img/lib/azure2/general/Folder_Blank.svg;" vertex="1" parent="1">
          <mxGeometry x="123.1" y="265.21" width="63.81" height="51.79" as="geometry" />
        </mxCell>
        <mxCell id="6X04bSD_6SKhwLYX3m_c-3" value="" style="image;aspect=fixed;html=1;points=[];align=center;fontSize=12;image=img/lib/azure2/general/File.svg;" vertex="1" parent="1">
          <mxGeometry x="160.33" y="287" width="34.9" height="43" as="geometry" />
        </mxCell>
        <mxCell id="6X04bSD_6SKhwLYX3m_c-5" value="&lt;b&gt;Sources&lt;/b&gt;" style="text;html=1;align=center;verticalAlign=middle;whiteSpace=wrap;rounded=0;fillColor=default;strokeColor=default;" vertex="1" parent="1">
          <mxGeometry x="90" y="190" width="130" height="30" as="geometry" />
        </mxCell>
        <mxCell id="6X04bSD_6SKhwLYX3m_c-6" value="" style="rounded=0;whiteSpace=wrap;html=1;dashed=1;fillColor=default;" vertex="1" parent="1">
          <mxGeometry x="250" y="210" width="384" height="320" as="geometry" />
        </mxCell>
        <mxCell id="6X04bSD_6SKhwLYX3m_c-7" value="&lt;b&gt;Medallion Architecture&lt;/b&gt;" style="text;html=1;align=center;verticalAlign=middle;whiteSpace=wrap;rounded=0;fillColor=default;strokeColor=default;" vertex="1" parent="1">
          <mxGeometry x="357" y="190" width="160" height="30" as="geometry" />
        </mxCell>
        <mxCell id="6X04bSD_6SKhwLYX3m_c-14" value="" style="html=1;verticalLabelPosition=bottom;align=center;labelBackgroundColor=#ffffff;verticalAlign=top;strokeWidth=2;strokeColor=#d79b00;shadow=0;dashed=0;shape=mxgraph.ios7.icons.data;fillColor=#ffe6cc;" vertex="1" parent="1">
          <mxGeometry x="291" y="247" width="60" height="70" as="geometry" />
        </mxCell>
        <mxCell id="6X04bSD_6SKhwLYX3m_c-15" value="" style="html=1;verticalLabelPosition=bottom;align=center;labelBackgroundColor=#ffffff;verticalAlign=top;strokeWidth=2;strokeColor=#36393d;shadow=0;dashed=0;shape=mxgraph.ios7.icons.data;fillColor=#eeeeee;" vertex="1" parent="1">
          <mxGeometry x="411" y="247" width="60" height="70" as="geometry" />
        </mxCell>
        <mxCell id="6X04bSD_6SKhwLYX3m_c-16" value="" style="html=1;verticalLabelPosition=bottom;align=center;labelBackgroundColor=#ffffff;verticalAlign=top;strokeWidth=2;strokeColor=#d79b00;shadow=0;dashed=0;shape=mxgraph.ios7.icons.data;fillColor=#ffcd28;gradientColor=#ffa500;" vertex="1" parent="1">
          <mxGeometry x="531" y="247" width="60" height="70" as="geometry" />
        </mxCell>
        <mxCell id="6X04bSD_6SKhwLYX3m_c-17" value="&lt;b&gt;Bronze Layer&lt;/b&gt;" style="text;html=1;align=center;verticalAlign=middle;resizable=0;points=[];autosize=1;strokeColor=default;fillColor=none;" vertex="1" parent="1">
          <mxGeometry x="271" y="330" width="100" height="30" as="geometry" />
        </mxCell>
        <mxCell id="6X04bSD_6SKhwLYX3m_c-18" value="&lt;b&gt;Silver Layer&lt;/b&gt;" style="text;html=1;align=center;verticalAlign=middle;resizable=0;points=[];autosize=1;strokeColor=default;fillColor=none;" vertex="1" parent="1">
          <mxGeometry x="396" y="330" width="90" height="30" as="geometry" />
        </mxCell>
        <mxCell id="6X04bSD_6SKhwLYX3m_c-19" value="&lt;b&gt;Gold Layer&lt;/b&gt;" style="text;html=1;align=center;verticalAlign=middle;resizable=0;points=[];autosize=1;strokeColor=default;fillColor=none;" vertex="1" parent="1">
          <mxGeometry x="516" y="330" width="90" height="30" as="geometry" />
        </mxCell>
        <mxCell id="6X04bSD_6SKhwLYX3m_c-29" value="" style="shape=flexArrow;endArrow=classic;html=1;rounded=0;fillColor=#dae8fc;gradientColor=#7ea6e0;strokeColor=#6c8ebf;" edge="1" parent="1">
          <mxGeometry width="50" height="50" relative="1" as="geometry">
            <mxPoint x="363" y="283" as="sourcePoint" />
            <mxPoint x="404.08000000000004" y="283.42" as="targetPoint" />
          </mxGeometry>
        </mxCell>
        <mxCell id="6X04bSD_6SKhwLYX3m_c-22" value="" style="image;aspect=fixed;html=1;points=[];align=center;fontSize=12;image=img/lib/azure2/power_platform/PowerBI.svg;" vertex="1" parent="1">
          <mxGeometry x="670" y="267.11" width="36" height="48" as="geometry" />
        </mxCell>
        <mxCell id="6X04bSD_6SKhwLYX3m_c-32" value="" style="shape=flexArrow;endArrow=classic;html=1;rounded=0;fillColor=#dae8fc;gradientColor=#7ea6e0;strokeColor=#6c8ebf;" edge="1" parent="1">
          <mxGeometry width="50" height="50" relative="1" as="geometry">
            <mxPoint x="483" y="285" as="sourcePoint" />
            <mxPoint x="524.08" y="285.42" as="targetPoint" />
          </mxGeometry>
        </mxCell>
        <mxCell id="6X04bSD_6SKhwLYX3m_c-34" value="" style="shape=flexArrow;endArrow=classic;html=1;rounded=0;flowAnimation=0;fillColor=#dae8fc;gradientColor=#7ea6e0;strokeColor=#6c8ebf;" edge="1" parent="1">
          <mxGeometry width="50" height="50" relative="1" as="geometry">
            <mxPoint x="220" y="281.66" as="sourcePoint" />
            <mxPoint x="261.08000000000004" y="282.08000000000004" as="targetPoint" />
          </mxGeometry>
        </mxCell>
        <mxCell id="6X04bSD_6SKhwLYX3m_c-35" value="" style="sketch=0;outlineConnect=0;fontColor=#232F3E;gradientColor=none;fillColor=#01A88D;strokeColor=none;dashed=0;verticalLabelPosition=bottom;verticalAlign=top;align=center;html=1;fontSize=12;fontStyle=0;aspect=fixed;pointerEvents=1;shape=mxgraph.aws4.sagemaker_model;" vertex="1" parent="1">
          <mxGeometry x="700" y="400" width="50" height="50" as="geometry" />
        </mxCell>
        <mxCell id="6X04bSD_6SKhwLYX3m_c-36" value="" style="verticalLabelPosition=bottom;aspect=fixed;html=1;shape=mxgraph.salesforce.analytics;fillColorStyles=fillColor2,fillColor3,fillColor4,fillColor5,fillColor6,fillColor7,fillColor8;fillColor2=#7099a6;fillColor3=#eb912c;fillColor4=#c72035;fillColor5=#1f447e;fillColor6=#59879b;fillColor7=#e8762c;fillColor8=#5b6591;fillColor=none;strokeColor=none;" vertex="1" parent="1">
          <mxGeometry x="730" y="249.92" width="46" height="45.08" as="geometry" />
        </mxCell>
        <mxCell id="6X04bSD_6SKhwLYX3m_c-38" value="&lt;b&gt;Object Type&lt;/b&gt;: CSV Files" style="text;html=1;align=center;verticalAlign=middle;whiteSpace=wrap;rounded=0;" vertex="1" parent="1">
          <mxGeometry x="90" y="410" width="130" height="30" as="geometry" />
        </mxCell>
        <mxCell id="6X04bSD_6SKhwLYX3m_c-21" value="&lt;b&gt;Consume&lt;/b&gt;" style="text;html=1;align=center;verticalAlign=middle;whiteSpace=wrap;rounded=0;fillColor=default;strokeColor=default;" vertex="1" parent="1">
          <mxGeometry x="660" y="190" width="130" height="30" as="geometry" />
        </mxCell>
        <mxCell id="6X04bSD_6SKhwLYX3m_c-42" value="&lt;b&gt;Volumes&lt;/b&gt;" style="text;html=1;align=center;verticalAlign=middle;whiteSpace=wrap;rounded=0;" vertex="1" parent="1">
          <mxGeometry x="110" y="330" width="100" height="30" as="geometry" />
        </mxCell>
        <mxCell id="6X04bSD_6SKhwLYX3m_c-44" value="" style="shape=flexArrow;endArrow=classic;html=1;rounded=0;fillColor=#dae8fc;gradientColor=#7ea6e0;strokeColor=#6c8ebf;" edge="1" parent="1">
          <mxGeometry width="50" height="50" relative="1" as="geometry">
            <mxPoint x="619" y="286" as="sourcePoint" />
            <mxPoint x="660.08" y="286.42" as="targetPoint" />
          </mxGeometry>
        </mxCell>
        <mxCell id="6X04bSD_6SKhwLYX3m_c-46" value="&lt;b&gt;Object Type:&lt;/b&gt;Tables" style="text;html=1;align=center;verticalAlign=middle;whiteSpace=wrap;rounded=0;" vertex="1" parent="1">
          <mxGeometry x="266.5" y="380" width="109" height="30" as="geometry" />
        </mxCell>
        <mxCell id="6X04bSD_6SKhwLYX3m_c-49" value="&lt;b&gt;Object Type:&lt;/b&gt;Tables" style="text;html=1;align=center;verticalAlign=middle;whiteSpace=wrap;rounded=0;" vertex="1" parent="1">
          <mxGeometry x="387.5" y="380" width="109" height="30" as="geometry" />
        </mxCell>
        <mxCell id="6X04bSD_6SKhwLYX3m_c-50" value="&lt;b&gt;Object Type:&lt;/b&gt;Views" style="text;html=1;align=center;verticalAlign=middle;whiteSpace=wrap;rounded=0;" vertex="1" parent="1">
          <mxGeometry x="506.5" y="380" width="109" height="30" as="geometry" />
        </mxCell>
        <mxCell id="6X04bSD_6SKhwLYX3m_c-52" value="&lt;ul&gt;&lt;li&gt;Batch Processing&lt;/li&gt;&lt;li&gt;Full-Load&lt;/li&gt;&lt;/ul&gt;" style="text;strokeColor=none;fillColor=none;html=1;whiteSpace=wrap;verticalAlign=middle;overflow=hidden;" vertex="1" parent="1">
          <mxGeometry x="251" y="417.54" width="140" height="80" as="geometry" />
        </mxCell>
        <mxCell id="6X04bSD_6SKhwLYX3m_c-51" value="&lt;b&gt;Load:&lt;/b&gt;" style="text;html=1;align=center;verticalAlign=middle;whiteSpace=wrap;rounded=0;" vertex="1" parent="1">
          <mxGeometry x="258.5" y="417.54" width="53.5" height="30" as="geometry" />
        </mxCell>
        <mxCell id="6X04bSD_6SKhwLYX3m_c-53" value="&lt;ul&gt;&lt;li&gt;Batch Processing&lt;/li&gt;&lt;li&gt;Full-Load&lt;/li&gt;&lt;/ul&gt;" style="text;strokeColor=none;fillColor=none;html=1;whiteSpace=wrap;verticalAlign=middle;overflow=hidden;" vertex="1" parent="1">
          <mxGeometry x="367" y="417.54" width="140" height="80" as="geometry" />
        </mxCell>
        <mxCell id="6X04bSD_6SKhwLYX3m_c-54" value="&lt;b&gt;Load:&lt;/b&gt;" style="text;html=1;align=center;verticalAlign=middle;whiteSpace=wrap;rounded=0;" vertex="1" parent="1">
          <mxGeometry x="380" y="418" width="53.5" height="30" as="geometry" />
        </mxCell>
        <mxCell id="6X04bSD_6SKhwLYX3m_c-55" value="No &lt;b&gt;Load&lt;/b&gt;" style="text;html=1;align=center;verticalAlign=middle;whiteSpace=wrap;rounded=0;" vertex="1" parent="1">
          <mxGeometry x="506.5" y="418" width="63" height="30" as="geometry" />
        </mxCell>
        <mxCell id="6X04bSD_6SKhwLYX3m_c-57" value="&lt;b&gt;BI &amp;amp; Reporting&lt;/b&gt;" style="text;html=1;align=center;verticalAlign=middle;whiteSpace=wrap;rounded=0;fillColor=none;" vertex="1" parent="1">
          <mxGeometry x="670.5" y="330" width="109" height="30" as="geometry" />
        </mxCell>
        <mxCell id="6X04bSD_6SKhwLYX3m_c-58" value="&lt;b&gt;AI &amp;amp; ML&lt;/b&gt;" style="text;html=1;align=center;verticalAlign=middle;whiteSpace=wrap;rounded=0;fillColor=none;" vertex="1" parent="1">
          <mxGeometry x="670.5" y="467.54" width="109" height="30" as="geometry" />
        </mxCell>
      </root>
    </mxGraphModel>
  </diagram>
</mxfile>
